<svg width="143" height="42" fill="none" xmlns="http://www.w3.org/2000/svg"><path d="M0 14C0 6.268 6.268 0 14 0h115c7.732 0 14 6.268 14 14v14c0 7.732-6.268 14-14 14H14C6.268 42 0 35.732 0 28V14z" fill="#fff"/><g clip-path="url(#clip0_2_63)" stroke="#000" stroke-width="12.583" stroke-linecap="round" stroke-linejoin="round"><path d="M20 10.514c5.791 0 10.486 4.695 10.486 10.486S25.791 31.486 20 31.486 9.514 26.791 9.514 21 14.209 10.514 20 10.514zm2.422 6.291l6.02 10.424M17.578 16.805h12.038M15.155 21l6.02-10.423m-3.597 14.617l-6.02-10.423m10.864 10.424H10.384M24.845 21l-6.02 10.423"/></g><defs><clipPath id="clip0_2_63"><path fill="#fff" transform="translate(4 5)" d="M0 0h32v32H0z"/></clipPath></defs></svg>